<svg width="16" height="12" viewBox="0 0 16 12" fill="none" xmlns="http://www.w3.org/2000/svg">
<path d="M10.0241 8.54313C10.4855 8.09139 10.8018 7.51245 10.9328 6.88016C11.0638 6.24788 11.0035 5.59091 10.7595 4.99306C10.5155 4.39521 10.099 3.88358 9.5631 3.52344C9.02716 3.16329 8.39609 2.97094 7.75038 2.97094C7.10467 2.97094 6.4736 3.16329 5.93766 3.52344C5.40172 3.88358 4.98521 4.39521 4.74126 4.99306C4.4973 5.59091 4.43697 6.24788 4.56794 6.88016C4.69891 7.51245 5.01526 8.09139 5.47663 8.54313C4.69549 8.9584 4.04604 9.58382 3.60163 10.3488C3.50646 10.5207 3.4826 10.7232 3.53518 10.9126C3.58776 11.1019 3.71258 11.2631 3.88278 11.3614C4.05298 11.4597 4.25497 11.4872 4.44527 11.4381C4.63558 11.389 4.799 11.2671 4.90038 11.0988C5.19345 10.6036 5.61044 10.1933 6.11029 9.90832C6.61015 9.62332 7.17561 9.47344 7.751 9.47344C8.32639 9.47344 8.89186 9.62332 9.39171 9.90832C9.89157 10.1933 10.3086 10.6036 10.6016 11.0988C10.6499 11.1859 10.715 11.2626 10.7932 11.3244C10.8715 11.3861 10.9612 11.4316 11.0572 11.4583C11.1532 11.4849 11.2536 11.4922 11.3524 11.4796C11.4513 11.4671 11.5466 11.4349 11.6329 11.3851C11.7192 11.3353 11.7947 11.2687 11.855 11.1894C11.9153 11.1101 11.9591 11.0195 11.984 10.923C12.0089 10.8266 12.0144 10.7261 12 10.6275C11.9856 10.5289 11.9518 10.4341 11.9004 10.3488C11.4556 9.58365 10.8057 8.95821 10.0241 8.54313ZM6.00038 6.22438C6.00038 5.87827 6.10301 5.53992 6.29531 5.25214C6.4876 4.96435 6.76091 4.74005 7.08068 4.60759C7.40045 4.47514 7.75232 4.44048 8.09179 4.50801C8.43125 4.57553 8.74307 4.7422 8.98782 4.98695C9.23256 5.23169 9.39923 5.54351 9.46675 5.88298C9.53428 6.22244 9.49962 6.57431 9.36717 6.89408C9.23471 7.21385 9.01041 7.48716 8.72263 7.67945C8.43484 7.87175 8.0965 7.97438 7.75038 7.97438C7.28625 7.97438 6.84113 7.79001 6.51294 7.46182C6.18475 7.13363 6.00038 6.68851 6.00038 6.22438ZM15.201 6.82376C15.1222 6.88298 15.0326 6.9261 14.9371 6.95065C14.8417 6.9752 14.7423 6.98069 14.6447 6.96682C14.5472 6.95294 14.4533 6.91998 14.3685 6.8698C14.2836 6.81962 14.2095 6.75322 14.1504 6.67438C13.6298 5.98126 12.9098 5.45001 12.3173 5.32188C12.1597 5.28781 12.0173 5.20388 11.9112 5.08254C11.8051 4.96121 11.7409 4.80891 11.7282 4.64823C11.7154 4.48754 11.7547 4.32702 11.8404 4.19045C11.926 4.05388 12.0533 3.94853 12.2035 3.89001C12.3905 3.81702 12.5572 3.70006 12.6894 3.54904C12.8216 3.39802 12.9156 3.21737 12.9632 3.02238C13.0109 2.82738 13.0109 2.62378 12.9632 2.42878C12.9156 2.23379 12.8216 2.05314 12.6894 1.90212C12.5572 1.7511 12.3905 1.63414 12.2035 1.56115C12.0165 1.48816 11.8147 1.46127 11.6151 1.48277C11.4155 1.50426 11.2241 1.57351 11.0569 1.68464C10.8897 1.79578 10.7518 1.94554 10.6548 2.12126C10.6087 2.2103 10.5453 2.28922 10.4683 2.35335C10.3912 2.41747 10.3021 2.4655 10.2062 2.4946C10.1103 2.5237 10.0095 2.53328 9.90983 2.52277C9.81015 2.51226 9.71358 2.48187 9.62584 2.4334C9.5381 2.38494 9.46097 2.31938 9.399 2.24059C9.33703 2.16181 9.29148 2.0714 9.26504 1.97472C9.2386 1.87803 9.23181 1.77702 9.24508 1.67767C9.25834 1.57831 9.29138 1.48263 9.34225 1.39626C9.52784 1.0681 9.77892 0.781607 10.0799 0.554573C10.3809 0.32754 10.7253 0.164815 11.0918 0.0765068C11.4583 -0.011801 11.8391 -0.0238055 12.2104 0.041239C12.5818 0.106283 12.9358 0.246988 13.2505 0.454611C13.5651 0.662235 13.8338 0.932343 14.0397 1.24816C14.2455 1.56397 14.3843 1.91875 14.4473 2.29045C14.5103 2.66215 14.4962 3.04283 14.4059 3.40885C14.3156 3.77487 14.1509 4.11841 13.9223 4.41813C14.4725 4.78473 14.9556 5.24329 15.3504 5.77376C15.4698 5.93281 15.5211 6.13278 15.4931 6.32969C15.4651 6.5266 15.36 6.70432 15.201 6.82376ZM3.1835 5.32376C2.591 5.45188 1.871 5.98313 1.35038 6.67688C1.23062 6.83593 1.05258 6.94089 0.855432 6.96867C0.658285 6.99645 0.458176 6.94477 0.299129 6.82501C0.140082 6.70525 0.0351247 6.52721 0.00734592 6.33006C-0.0204329 6.13291 0.0312426 5.9328 0.151004 5.77376C0.545931 5.24346 1.02899 4.78492 1.57913 4.41813C1.35044 4.11841 1.18583 3.77487 1.0955 3.40885C1.00518 3.04283 0.991081 2.66215 1.05408 2.29045C1.11708 1.91875 1.25584 1.56397 1.46173 1.24816C1.66761 0.932343 1.93624 0.662235 2.25092 0.454611C2.5656 0.246988 2.9196 0.106283 3.29095 0.041239C3.6623 -0.0238055 4.04305 -0.011801 4.40957 0.0765068C4.77608 0.164815 5.12052 0.32754 5.42149 0.554573C5.72247 0.781607 5.97354 1.0681 6.15913 1.39626C6.21 1.48263 6.24305 1.57831 6.25631 1.67767C6.26957 1.77702 6.26278 1.87803 6.23635 1.97472C6.20991 2.0714 6.16436 2.16181 6.10239 2.24059C6.04042 2.31938 5.96328 2.38494 5.87554 2.4334C5.7878 2.48187 5.69124 2.51226 5.59155 2.52277C5.49187 2.53328 5.39109 2.5237 5.29517 2.4946C5.19925 2.4655 5.11014 2.41747 5.0331 2.35335C4.95606 2.28922 4.89265 2.2103 4.84663 2.12126C4.74958 1.94554 4.61165 1.79578 4.44448 1.68464C4.27732 1.57351 4.08585 1.50426 3.88627 1.48277C3.68669 1.46127 3.48487 1.48816 3.29788 1.56115C3.11089 1.63414 2.94422 1.7511 2.81199 1.90212C2.67975 2.05314 2.58583 2.23379 2.53817 2.42878C2.4905 2.62378 2.4905 2.82738 2.53817 3.02238C2.58583 3.21737 2.67975 3.39802 2.81199 3.54904C2.94422 3.70006 3.11089 3.81702 3.29788 3.89001C3.44807 3.94853 3.57541 4.05388 3.66103 4.19045C3.74665 4.32702 3.78599 4.48754 3.77323 4.64823C3.76046 4.80891 3.69627 4.96121 3.59016 5.08254C3.48405 5.20388 3.34168 5.28781 3.18413 5.32188L3.1835 5.32376Z" fill="#FEFEFE"/>
</svg>
