<svg width="14" height="14" viewBox="0 0 14 14" fill="none" xmlns="http://www.w3.org/2000/svg">
<path d="M4.113 11.323H3.5V5.59997L6.52 1.30297C6.68824 1.06397 6.93196 0.888469 7.21197 0.804684C7.49199 0.720899 7.79204 0.733692 8.06391 0.841008C8.33577 0.948324 8.56367 1.14393 8.71095 1.39639C8.85824 1.64884 8.91637 1.94349 8.876 2.23297L8.65 3.86097H10.64C11.51 3.86097 13.251 4.73097 13.251 6.47097C13.251 8.21097 11.501 12.193 9.65 12.193C7.213 12.193 5.128 11.613 4.113 11.323ZM0.75 5.37497C0.75 4.61497 1.366 3.99997 2.125 3.99997C2.885 3.99997 3.5 4.61597 3.5 5.37497V11.125C3.5 11.885 2.884 12.5 2.125 12.5C1.365 12.5 0.75 11.884 0.75 11.125V5.37497Z" stroke="#FEFEFE" stroke-linecap="round" stroke-linejoin="round"/>
</svg>
